<?xml version="1.0" encoding="utf-8"?>
<!-- Generator: Adobe Illustrator 22.1.0, SVG Export Plug-In . SVG Version: 6.00 Build 0)  -->
<svg version="1.1" id="Layer_1" xmlns="http://www.w3.org/2000/svg" xmlns:xlink="http://www.w3.org/1999/xlink" x="0px" y="0px"
	 viewBox="0 0 360 345" style="enable-background:new 0 0 360 345;" xml:space="preserve">
<style type="text/css">
	.st0{fill:#F64D71;}
	.st1{fill:#1D1D62;}
</style>
<path class="st0" d="M280.5,172.5L280.5,172.5c-38.4,0-69.5-31.1-69.5-69.5l0,0c0-38.4,31.1-69.5,69.5-69.5l0,0
	c38.4,0,69.5,31.1,69.5,69.5l0,0C350,141.4,318.9,172.5,280.5,172.5z"/>
<path class="st1" d="M211.5,93.5L211.5,93.5C189.7,93.5,172,75.8,172,54l0,0c0-21.8,17.7-39.5,39.5-39.5l0,0
	c21.8,0,39.5,17.7,39.5,39.5l0,0C251,75.8,233.3,93.5,211.5,93.5z"/>
<path class="st0" d="M180,277.5L180,277.5c-8.8,0-16-7.2-16-16l0,0c0-8.8,7.2-16,16-16l0,0c8.8,0,16,7.2,16,16l0,0
	C196,270.3,188.8,277.5,180,277.5z"/>
</svg>
