<svg width="129" height="51" viewBox="0 0 129 51" fill="none" xmlns="http://www.w3.org/2000/svg">
<g clip-path="url(#clip0)">
<path d="M3.88499 50.5415L23.7076 23.2242L11.3185 3.98282C9.02419 0.434321 4.25208 -0.605755 0.67299 1.68853L0 2.14739L13.4292 22.9489L1.65189 39.1619C-0.917714 42.6798 -0.122362 47.6354 3.39554 50.205" fill="#1D1D62"/>
<path d="M34.1695 5.57262L19.1802 5.45026C18.2624 5.45026 17.7118 6.45974 18.2013 7.2245L26.2771 19.6748L35.1484 7.46923C35.7296 6.70447 35.179 5.57262 34.1695 5.57262Z" fill="#F64D71"/>
<path d="M27.8069 33.9603C27.4398 32.7673 27.2869 31.5131 27.2869 30.2283C27.2869 29.1576 27.4398 28.1176 27.7151 27.0469C28.021 25.9762 28.4799 25.1197 29.0917 24.4161C30.1012 23.2537 31.4166 22.5501 33.0379 22.336C34.6592 22.1218 36.0969 22.2442 37.3817 22.703C38.8806 23.2843 39.9819 24.3243 40.6855 25.7621C41.3585 27.0469 41.695 28.5764 41.695 30.2895C41.695 31.5437 41.5726 32.6144 41.2973 33.5321C41.022 34.4192 40.6855 35.184 40.2266 35.8264C39.2783 37.1112 38.0853 37.9371 36.6475 38.243C35.3627 38.6101 34.0474 38.6101 32.732 38.3348C31.4166 38.0289 30.3765 37.5394 29.5811 36.8359C28.7552 36.1017 28.174 35.1534 27.8069 33.9603ZM31.2942 30.473C31.386 32.2473 31.6919 33.5015 32.3037 34.2051C32.5484 34.511 32.9461 34.7863 33.5273 35.0004C34.1085 35.2146 34.7203 35.2451 35.3322 35.0616C35.944 34.8781 36.464 34.4498 36.9535 33.7462C37.4429 33.0426 37.6876 31.9108 37.7182 30.3507C37.7182 28.9435 37.5041 27.8728 37.0452 27.1693C36.5864 26.4657 36.0663 26.0068 35.4851 25.8233C34.9039 25.6397 34.3227 25.6091 33.7109 25.7927C33.1296 25.9762 32.7014 26.1904 32.4261 26.4657C31.5695 27.3528 31.2024 28.6988 31.2942 30.473Z" fill="#1D1D62"/>
<path d="M58.0608 31.7575C58.0608 34.5413 57.3267 36.3767 55.8889 37.2332C54.4512 38.0898 52.8605 38.518 51.1168 38.518C49.4343 38.4262 47.9048 37.9674 46.4976 37.1109C45.1211 36.2543 44.4175 34.4801 44.4175 31.7575V22.5804H48.5472V32.5835C48.5472 33.5318 48.8225 34.2048 49.3731 34.633C49.9238 35.0613 50.5356 35.2754 51.2392 35.2754C51.9427 35.2754 52.5851 35.0613 53.1358 34.633C53.717 34.2048 53.9923 33.5012 53.9923 32.5835V24.5688C53.9923 24.0181 54.1758 23.5593 54.5429 23.1616C54.91 22.7639 55.3995 22.5804 55.9807 22.5804H58.0302V31.7575H58.0608Z" fill="#1D1D62"/>
<path d="M76.2009 36.7439C74.5796 38.0287 72.4689 38.6711 69.8381 38.6711C66.7791 38.6711 64.4542 37.7534 62.8329 35.9179C61.2116 34.1437 60.4163 31.5435 60.4163 28.0868C60.4163 24.5689 61.2422 21.9075 62.8941 20.1638C64.5766 18.3284 67.0238 17.4107 70.1746 17.4107C72.7748 17.4107 74.8244 18.0531 76.3539 19.3379C77.7916 20.5921 78.6176 22.3664 78.8317 24.6301H76.2927C75.3444 24.6301 74.6714 24.2324 74.3043 23.4064C74.029 22.8864 73.6925 22.4581 73.2948 22.0605C72.4995 21.4792 71.4594 21.1733 70.1746 21.1733C68.3698 21.1733 66.9932 21.7546 66.0143 22.9476C65.066 24.11 64.6072 25.8537 64.6072 28.1174C64.6072 30.3199 65.066 32.0024 66.0143 33.1648C66.9014 34.3884 68.278 35.0002 70.0828 35.0002C71.3371 35.0002 72.3771 34.6943 73.2031 34.0519C73.9372 33.4707 74.4879 32.5224 74.7938 31.2376H78.8623C78.6482 33.5625 77.7611 35.3979 76.2009 36.7439Z" fill="#1D1D62"/>
<path d="M84.124 17.9917C84.6746 17.9917 85.1335 18.1752 85.5312 18.5423C85.9288 18.9094 86.1124 19.3683 86.1124 19.9189V38.212H81.9827V17.9917H84.124Z" fill="#1D1D62"/>
<path d="M89.0796 33.9603C88.7125 32.7673 88.5596 31.5131 88.5596 30.2283C88.5596 29.1576 88.7125 28.1176 88.9878 27.0469C89.2937 25.9762 89.7526 25.1197 90.3644 24.4161C91.3739 23.2537 92.6893 22.5501 94.3106 22.336C95.9319 22.1218 97.3696 22.2442 98.6544 22.703C100.153 23.2843 101.255 24.3243 101.958 25.7621C102.631 27.0469 102.968 28.5764 102.968 30.2895C102.968 31.5437 102.845 32.6144 102.57 33.5321C102.295 34.4192 101.958 35.184 101.499 35.8264C100.551 37.1112 99.358 37.9371 97.9203 38.243C96.6355 38.6101 95.3201 38.6101 94.0047 38.3348C92.6893 38.0289 91.6492 37.5394 90.8539 36.8359C90.0279 36.1017 89.4467 35.1534 89.0796 33.9603ZM92.5669 30.473C92.6587 32.2473 92.9646 33.5015 93.5764 34.2051C93.8211 34.511 94.2188 34.7863 94.8 35.0004C95.3812 35.2146 95.993 35.2451 96.6049 35.0616C97.2167 34.8781 97.7367 34.4498 98.2262 33.7462C98.7156 33.0426 98.9603 31.9108 98.9909 30.3507C98.9909 28.9435 98.7768 27.8728 98.3179 27.1693C97.8591 26.4657 97.339 26.0068 96.7578 25.8233C96.1766 25.6397 95.5954 25.6091 94.9836 25.7927C94.4023 25.9762 93.9741 26.1904 93.6988 26.4657C92.8422 27.3528 92.4752 28.6988 92.5669 30.473Z" fill="#1D1D62"/>
<path d="M119.334 31.7575C119.334 34.5413 118.599 36.3767 117.162 37.2332C115.724 38.0898 114.133 38.518 112.389 38.518C110.707 38.4262 109.177 37.9674 107.77 37.1109C106.394 36.2543 105.69 34.4801 105.69 31.7575V22.5804H109.82V32.5835C109.82 33.5318 110.095 34.2048 110.646 34.633C111.196 35.0613 111.808 35.2754 112.512 35.2754C113.215 35.2754 113.858 35.0613 114.408 34.633C114.959 34.2048 115.265 33.5012 115.265 32.5835V24.5688C115.265 24.0181 115.449 23.5593 115.816 23.1616C116.183 22.7639 116.672 22.5804 117.253 22.5804H119.303V31.7575H119.334Z" fill="#1D1D62"/>
<path d="M124.809 38.1508C123.31 38.0285 122.545 37.0802 122.545 35.2753V17.9917H124.656C125.176 17.9917 125.604 18.1752 126.002 18.5729C126.4 18.9706 126.583 19.4295 126.583 19.9801V22.6109H129V23.4368C129 24.018 128.816 24.5075 128.419 24.8746C128.021 25.2416 127.562 25.4252 127.012 25.4252H126.614V34.1129C126.614 34.7859 127.012 35.1224 127.776 35.1224H129V38.1814C127.715 38.2732 126.308 38.2732 124.809 38.1508Z" fill="#1D1D62"/>
</g>
<defs>
<clipPath id="clip0">
<rect width="129" height="50.0766" fill="white" transform="translate(0 0.463867)"/>
</clipPath>
</defs>
</svg>
